<?xml version="1.0" standalone="no"?>
<!DOCTYPE svg PUBLIC "-//W3C//DTD SVG 20010904//EN"
 "http://www.w3.org/TR/2001/REC-SVG-20010904/DTD/svg10.dtd">
<svg version="1.0" xmlns="http://www.w3.org/2000/svg"
 width="48.000000pt" height="48.000000pt" viewBox="0 0 48.000000 48.000000"
 preserveAspectRatio="xMidYMid meet">

<g transform="translate(0.000000,48.000000) scale(0.100000,-0.100000)"
fill="#000000" stroke="none">
<path d="M163 409 c-23 -11 -49 -32 -58 -46 -17 -25 -17 -32 -2 -171 2 -18 16
-45 30 -60 15 -16 27 -33 27 -38 0 -40 86 -56 160 -31 29 10 37 19 46 52 6 22
13 47 17 55 4 8 6 53 4 99 -4 84 -4 84 -45 122 -36 34 -47 39 -89 39 -28 0
-65 -8 -90 -21z m174 -34 c30 -30 34 -40 32 -77 -2 -24 0 -54 5 -67 7 -20 -6
-60 -32 -101 -2 -2 -7 2 -12 10 -8 13 -10 12 -10 -2 0 -21 -16 -24 -23 -5 -3
7 -6 5 -6 -5 -1 -19 -21 -26 -21 -7 0 5 -5 7 -12 3 -21 -13 -58 -13 -58 -1 0
8 -3 7 -9 -2 -14 -22 -72 42 -69 77 1 15 -4 37 -10 49 -43 78 28 163 137 163
47 0 57 -4 88 -35z m-44 -295 c-4 -4 -18 -11 -30 -15 -18 -5 -23 -2 -23 10 0
11 5 15 15 12 8 -4 17 -2 20 4 4 5 11 6 17 3 5 -3 6 -10 1 -14z m37 10 c0 -5
-4 -10 -10 -10 -5 0 -10 5 -10 10 0 6 5 10 10 10 6 0 10 -4 10 -10z m-100 -15
c0 -8 -4 -15 -10 -15 -5 0 -10 7 -10 15 0 8 5 15 10 15 6 0 10 -7 10 -15z"/>
<path d="M181 376 c-28 -15 -51 -52 -50 -81 1 -12 5 -7 10 13 11 36 59 72 96
72 34 0 68 -19 86 -48 12 -19 17 -22 17 -10 1 51 -101 86 -159 54z"/>
<path d="M202 334 c-12 -8 -22 -19 -22 -25 0 -5 9 0 20 11 26 26 41 25 75 -2
27 -21 27 -21 17 -1 -19 35 -55 42 -90 17z"/>
<path d="M288 283 c-33 -5 -37 -32 -10 -56 26 -23 41 -21 54 7 11 25 5 57 -9
55 -4 -1 -20 -4 -35 -6z"/>
<path d="M178 263 c-33 -5 -37 -32 -10 -56 26 -24 38 -21 52 12 11 28 7 53 -8
50 -4 -1 -19 -4 -34 -6z"/>
<path d="M237 183 c-13 -12 -7 -23 13 -23 11 0 20 7 20 15 0 15 -21 21 -33 8z"/>
</g>
</svg>
