<?xml version="1.0" standalone="no"?>
<!DOCTYPE svg PUBLIC "-//W3C//DTD SVG 20010904//EN"
 "http://www.w3.org/TR/2001/REC-SVG-20010904/DTD/svg10.dtd">
<svg version="1.0" xmlns="http://www.w3.org/2000/svg"
 width="512.000000pt" height="512.000000pt" viewBox="0 0 512.000000 512.000000"
 preserveAspectRatio="xMidYMid meet">

<g transform="translate(0.000000,512.000000) scale(0.100000,-0.100000)"
fill="#000000" stroke="none">
<path d="M3275 4640 c-254 -40 -469 -141 -637 -299 -139 -131 -220 -260 -275
-438 -24 -80 -27 -103 -27 -260 -1 -95 -2 -173 -3 -173 -26 0 -296 60 -383 85
-316 91 -637 259 -900 471 -119 96 -297 276 -427 431 l-111 131 -60 -111 c-86
-161 -96 -183 -126 -272 -94 -278 -84 -561 28 -823 l35 -81 -55 20 c-31 12
-58 18 -61 15 -13 -12 -15 -334 -4 -402 34 -198 166 -466 280 -568 28 -25 27
-36 -4 -36 l-24 0 54 -160 c30 -88 69 -188 86 -222 99 -198 258 -368 445 -478
36 -21 62 -40 57 -43 -50 -31 -726 -272 -1018 -362 -66 -21 -124 -41 -128 -45
-12 -10 366 -214 544 -294 405 -180 726 -248 1244 -262 999 -28 1815 306 2289
937 162 216 293 497 365 787 64 254 83 429 86 772 1 257 3 279 24 340 25 72
61 125 349 515 109 149 196 271 193 272 -3 2 -80 -1 -171 -5 -91 -5 -166 -7
-168 -7 -1 1 25 80 59 176 33 96 76 218 94 271 l33 96 -36 -13 c-21 -7 -89
-32 -152 -55 -63 -23 -213 -76 -334 -116 l-218 -74 -74 56 c-136 102 -292 172
-466 210 -88 19 -320 27 -403 14z m408 -325 c105 -30 191 -72 265 -129 107
-81 118 -88 157 -107 58 -27 131 -24 252 11 57 17 105 30 107 30 2 0 -25 -80
-59 -177 l-62 -178 78 -3 c44 -2 79 -5 79 -8 0 -2 -31 -46 -69 -97 -83 -111
-135 -210 -162 -315 -19 -68 -21 -111 -24 -372 -3 -316 -14 -439 -61 -650
-129 -580 -465 -1016 -983 -1279 -395 -200 -845 -291 -1371 -278 -420 11 -658
50 -954 158 -47 17 -86 34 -86 39 0 4 12 11 27 15 62 15 387 142 561 219 222
97 822 379 818 384 -2 1 -136 11 -299 22 -163 11 -326 24 -362 30 -208 33
-404 153 -529 321 l-27 37 66 7 c67 7 154 29 504 125 139 39 188 56 175 62
-11 4 -138 37 -284 72 -278 68 -385 101 -460 144 -168 97 -304 252 -371 426
-16 43 -29 79 -27 81 2 1 35 -4 73 -11 70 -14 647 -75 653 -69 2 2 -76 65
-174 142 -248 193 -297 235 -370 321 -73 86 -153 241 -178 344 -31 130 -31
300 0 397 3 10 33 -13 92 -70 202 -198 451 -374 712 -503 382 -190 706 -272
1218 -311 45 -4 82 -4 82 0 0 40 -25 222 -41 299 -29 136 -24 310 13 408 94
251 319 426 621 484 109 21 290 12 400 -21z"/>
</g>
</svg>
