<?xml version="1.0" encoding="UTF-8" standalone="no"?>
<!DOCTYPE svg PUBLIC "-//W3C//DTD SVG 20010904//EN" "http://www.w3.org/TR/2001/REC-SVG-20010904/DTD/svg10.dtd">
<svg version="1.0" xmlns="http://www.w3.org/2000/svg" width="512.000000pt" height="512.000000pt" viewBox="0 0 512.000000 512.000000" preserveAspectRatio="xMidYMid meet">

<g transform="translate(0.000000,512.000000) scale(0.100000,-0.100000)" fill="#000000" stroke="none">
<path d="M1687 4424 c-206 -42 -416 -118 -638 -230 -151 -75 -328 -181 -365 -218 -68 -69 -217 -370 -316 -641 -177 -481 -316 -1161 -364 -1777 -9 -122 -1 -139 119 -255 392 -377 897 -612 1352 -629 126 -5 143 -4 170 14 17 10 122 137 235 280 l205 262 95 -8 c121 -9 635 -9 760 0 l95 7 205 -261 c113 -144 219 -269 235 -280 58 -35 315 -17 522 37 346 91 716 305 1000 578 128 124 130 127 114 308 -65 751 -239 1489 -472 2004 -71 156 -165 322 -203 361 -61 60 -366 228 -570 313 -309 129 -647 194 -734 141 -39 -24 -38 -23 -182 -299 l-115 -221 -275 0 -275 0 -115 221 c-144 276 -143 275 -182 299 -45 27 -150 25 -301 -6z m207 -413 c36 -71 66 -132 66 -134 0 -3 -44 -12 -97 -22 -358 -62 -785 -206 -862 -289 -19 -20 -26 -40 -28 -84 -5 -74 19 -115 83 -144 55 -24 85 -20 181 24 243 110 588 196 941 233 183 20 581 19 768 0 352 -37 691 -121 937 -233 96 -44 126 -48 181 -24 64 29 88 70 83 144 -5 91 -40 118 -261 203 -188 72 -414 134 -626 170 -52 9 -96 18 -98 20 -2 2 26 62 63 134 55 107 70 131 88 131 37 0 216 -47 327 -85 118 -41 385 -169 504 -242 70 -43 83 -56 119 -118 250 -436 455 -1201 541 -2020 l14 -130 -47 -44 c-310 -292 -778 -517 -1088 -524 l-67 -2 -118 150 c-65 82 -118 153 -118 157 0 3 26 12 58 18 109 23 328 89 447 135 228 88 472 223 519 287 27 38 27 118 0 156 -65 87 -137 92 -255 19 -246 -153 -593 -277 -942 -337 -390 -66 -896 -68 -1272 -4 -372 63 -721 187 -973 347 -107 67 -183 60 -246 -25 -27 -38 -27 -118 0 -156 47 -64 297 -202 521 -288 120 -46 341 -112 446 -134 31 -6 57 -15 57 -18 0 -4 -53 -75 -118 -157 l-118 -150 -65 1 c-198 5 -514 117 -753 269 -106 67 -189 128 -296 220 -78 67 -80 69 -80 114 0 57 33 338 60 509 101 653 277 1236 479 1592 45 80 53 88 127 133 225 137 547 272 754 315 98 21 91 26 164 -117z"/>
<path d="M1743 3076 c-195 -47 -354 -212 -408 -421 -21 -81 -21 -233 0 -315 53 -206 217 -376 404 -420 70 -16 222 -8 281 15 76 30 180 105 227 164 61 77 109 180 129 280 80 405 -265 786 -633 697z m197 -313 c169 -86 199 -359 54 -493 -53 -49 -80 -60 -145 -60 -130 0 -232 125 -231 284 0 33 5 79 11 102 15 56 66 129 107 155 75 46 131 49 204 12z"/>
<path d="M3156 3074 c-285 -69 -473 -386 -412 -695 33 -163 120 -300 243 -382 88 -58 149 -79 252 -85 157 -9 282 40 394 156 113 118 169 261 168 432 -1 173 -57 314 -169 428 -135 135 -304 188 -476 146z m219 -318 c24 -14 57 -47 74 -73 126 -190 20 -473 -178 -473 -65 0 -92 11 -145 60 -145 134 -115 404 54 493 46 24 63 28 104 23 26 -3 67 -17 91 -30z"/>
</g>
</svg>