<?xml version="1.0" encoding="utf-8"?>
<!-- Generator: Adobe Illustrator 24.0.0, SVG Export Plug-In . SVG Version: 6.00 Build 0)  -->
<svg version="1.1" id="Calque_1" xmlns="http://www.w3.org/2000/svg" xmlns:xlink="http://www.w3.org/1999/xlink" x="0px" y="0px"
	 viewBox="0 0 63.85 77.33" style="enable-background:new 0 0 63.85 77.33;" xml:space="preserve">
<style type="text/css">
	.st0{fill:#FFFFFF;}
</style>
<g>
	<path class="st0" d="M30.07,0.85c18.48,0.06,31.83,12.61,30.64,26.91c-0.41,4.92-0.71,9.26,1.38,14.01
		c1.9,4.31,0.8,8.98-3.42,12.01c-1.8,1.29-1.91,2.77-1.88,4.68c0.16,11.24-2.34,14.28-13.52,16.58c-4.56,0.94-9.14,1.77-13.83,1.74
		c-8.12-0.05-11.59-2.47-13.78-10.19c-0.89-3.16-1.95-5.47-5.32-6.98c-4.81-2.15-6.71-6.45-5.31-11.63c0.96-3.55,0.31-6-1.62-9.07
		c-4.84-7.73-3.4-18.77,3.05-25.98C13.46,5.11,22.3,1.05,30.07,0.85z M56.91,25.44c-0.15-7.2-3.41-12.87-10.03-16.32
		c-7.17-3.74-14.82-4.79-22.72-2.8C12.34,9.28,4.39,18.8,4.76,29.17c0.16,4.39,2.53,7.82,4.52,11.45c0.84,1.53,1.91,2.65,0.8,4.91
		c-2.42,4.9-1.18,8.57,3.51,11.41c2.52,1.52,4.75,2.98,5.11,6.17c0.11,0.93,0.63,1.51,1.62,1.53c1.08,0.02,1.39-0.64,1.36-1.6
		c-0.04-1.17-0.18-2.59,1.4-2.71c1.55-0.12,1.67,1.27,1.85,2.44c0.16,1.04,0.49,2.01,1.83,1.82c1.07-0.15,1.16-1.01,1.13-1.87
		c-0.05-1.21-0.07-2.52,1.44-2.74c1.61-0.23,1.69,1.24,2.07,2.3c0.31,0.86,0.13,2.2,1.57,2.07c1.6-0.15,1.65-1.32,1.42-2.59
		c-0.23-1.21-0.23-2.5,1.3-2.73c1.19-0.18,1.62,0.88,1.91,1.89c0.29,1.01-0.17,2.65,1.65,2.49c1.65-0.14,1.44-1.53,1.4-2.69
		c-0.04-1.1,0.32-2.1,1.38-2.39c1.35-0.37,1.62,0.77,1.78,1.75c0.2,1.18,0.8,1.85,2.01,1.57c1.41-0.33,0.86-1.54,0.93-2.45
		c0.07-0.93-0.34-2.14,1.08-2.36c0.93-0.14,1.53,0.53,1.84,1.35c0.38,0.99,0.83,1.88,2.1,1.58c1.34-0.32,1.1-1.45,1.08-2.41
		c-0.07-3.08,1.38-5.49,3.58-7.38c2.56-2.2,3.39-5.37,1.67-7.57c-3.66-4.7-2.89-9.29-1.38-14.23
		C56.95,27.42,56.84,26.54,56.91,25.44z M30.34,72.9c5.73-0.58,11.35-1.05,16.74-2.92c1.34-0.46,2.04-1.17,1.25-2.55
		c-0.52-0.91-0.42-2.53-2.14-2.25c-1.28,0.21-1.37,1.22-1.32,2.29c0.05,0.98,0.21,2.13-1.19,2.3c-0.94,0.11-1.55-0.55-1.8-1.4
		c-1.1-3.8-2.66-1.78-3.26,0c-1.13,3.37-2.08,1.68-3.44,0.29c-1.25-1.27-2.57-1.8-3.04,0.75c-0.17,0.93-0.13,2.18-1.46,2.25
		c-1.3,0.06-1.47-1.14-1.7-2.08c-0.27-1.08-0.65-1.91-1.98-1.54c-1.29,0.36-1.14,1.49-1.17,2.43C25.68,74.53,28.88,72.02,30.34,72.9
		z M52.59,64.14c0.01-0.52-0.16-1-0.7-1.01c-0.85-0.02-1.07,0.65-0.97,1.33c0.06,0.39,0.42,1.03,0.64,1.03
		C52.33,65.48,52.55,64.84,52.59,64.14z M22.55,69.55c0.05-0.72-0.18-1.26-0.83-1.55c-0.57-0.25-1,0.09-0.88,0.56
		c0.14,0.55,0.54,1.12,0.99,1.5C22.61,70.73,22.33,69.74,22.55,69.55z"/>
	<path class="st0" d="M51.56,35.07c-0.17,3.94-2.49,7.24-5.64,10.09c-0.34,0.3-0.86,0.53-1.3,0.56c-5.04,0.29-11.46-8.57-9.62-13.26
		c0.75-1.93,2.01-3.16,4.17-2.23c2.36,1.01,4.13,0.6,6.32-0.87C48.83,27.12,51.47,29.53,51.56,35.07z"/>
	<path class="st0" d="M30.22,38.03c-0.27,4.62-2.92,7.8-5.72,10.88c-0.42,0.46-0.95,0.7-1.75,0.56c-3.41-0.6-9.46-7.13-9.7-10.59
		c-0.26-3.82,2.18-5.95,5.94-4.91c1.46,0.41,2.6,1.24,3.95-0.24c1.29-1.41,2.92-2.25,4.87-1.19C30.1,33.78,29.85,36.13,30.22,38.03z
		"/>
	<path class="st0" d="M32.61,9.61c3.46,0.12,7.86,0.86,11.87,3.1c4.19,2.34,6.7,5.85,7.27,10.65c0.09,0.76,0.37,1.79-0.6,2.14
		c-1,0.36-1.4-0.66-1.86-1.3c-0.48-0.67-0.99-1.36-1.29-2.13c-3.44-8.93-14.41-12.22-24.1-8.13c-6.47,2.73-11.46,6.81-11.38,14.71
		c0.01,1.14,0.23,2.79-1.23,2.85c-1.94,0.08-1.51-1.78-1.51-3.01C9.87,17.2,19.49,8.83,32.61,9.61z"/>
	<path class="st0" d="M31.56,17c4.25,0.57,8.6,1.57,10.8,6.24c0.52,1.1,1.49,2.65,0.01,3.55c-1.61,0.98-2.23-0.77-2.98-1.76
		c-4.3-5.73-9.29-6.54-14.74-2.42c-1.98,1.5-3.07,3.4-3.19,5.89c-0.03,0.66-0.15,1.46-0.93,1.55c-1.07,0.11-1.26-0.87-1.44-1.62
		c-0.59-2.44,0.12-4.56,1.73-6.43C23.17,19.26,28.2,16.84,31.56,17z"/>
	<path class="st0" d="M29.63,52.16c0.16-3.15,1.73-4.98,4.79-5.26c2.68-0.24,5.3,2.47,5.04,5.51c-0.41,4.76-4.74,1.75-7.06,3.05
		C30.08,56.77,30.07,53.73,29.63,52.16z"/>
</g>
</svg>
