<svg _ngcontent-jaa-c13="" version="1.1" id="Calque_1"
                        xmlns="http://www.w3.org/2000/svg" xmlns:xlink="http://www.w3.org/1999/xlink" x="0px" y="0px" preserveAspectRatio="xMinYMin" width="500px" height="500px" viewBox="0 0 500 500"
                        xml:space="preserve"
                        style="enable-background: new 0 0 595.28 263.2;">
                        <g _ngcontent-jaa-c13="">
                            <path _ngcontent-jaa-c13="" d="M225.18,139.07c-9.41,0-18.62-5.05-27.64-15.17h-0.2c-0.39,0.65-1.27,0.97-2.65,0.97c-1.7,0-2.91-1.29-3.63-3.87
                    c0-1.18,0.88-1.83,2.65-1.94c0.85,0,1.73,0.05,2.65,0.16v-0.89c0.26-2.42,1.27-3.63,3.04-3.63h0.78c1.76,0,2.91,1.05,3.43,3.15
                    v0.81c0,0.59-0.59,1.37-1.76,2.34c7.25,9.03,14.41,13.55,21.47,13.55h1.67c5.16,0,9.47-2.39,12.94-7.18
                    c0.85-1.45,1.27-2.85,1.27-4.19v-1.29c0-4.95-4.41-9.3-13.23-13.07c-0.2-0.11-0.46-0.16-0.78-0.16c0,0.75-0.95,1.26-2.84,1.53
                    c-1.96,0-3.33-1.34-4.12-4.03c0.46-1.24,2.02-1.86,4.71-1.86l-0.2-2.18c0.33-1.88,1.27-2.82,2.84-2.82h0.59
                    c2.61,0.38,3.92,1.45,3.92,3.23v0.48c0,0.75-0.43,1.48-1.27,2.18c10.59,4.46,15.88,10.3,15.88,17.5v0.65
                    c0,6.35-4.15,11.27-12.45,14.76C229.29,138.74,226.94,139.07,225.18,139.07z M216.26,105.99h-0.39c-2.22,0-3.66-1.29-4.31-3.87
                    c0-0.81,0.49-1.64,1.47-2.5v-0.16c-7.25-3.82-12.29-9.14-15.1-15.97c-0.65-1.88-0.98-3.84-0.98-5.89c0-7.53,4.8-12.58,14.41-15.17
                    c1.96-0.48,3.86-0.73,5.69-0.73h1.67c9.08,0,17.12,5.08,24.11,15.25c0.26,0.38,0.39,0.65,0.39,0.81c0.98-0.43,1.73-0.65,2.25-0.65
                    c1.76,0,2.91,1.1,3.43,3.31c0,1.88-0.82,2.82-2.45,2.82l-3.04-0.65c-0.78,2.58-1.99,3.87-3.63,3.87c-2.35,0-3.69-1.29-4.02-3.87
                    c0-1.4,0.85-2.39,2.55-2.98v-0.32c-5.88-8.82-12.71-13.23-20.49-13.23c-5.36,0-9.8,2.02-13.33,6.05c-0.98,1.67-1.54,3.44-1.67,5.32
                    c0,5.97,4.67,12.37,14.02,19.2c0.78-0.86,1.6-1.29,2.45-1.29h0.39c2.09,0,3.43,1.21,4.02,3.63c0,1.18-0.95,1.86-2.84,2.02h-1.76
                    v2.34C218.71,105.11,217.76,105.99,216.26,105.99z" style="fill: #FF00CC;"></path>
                            <path _ngcontent-jaa-c13=""
                                d="M262.03,141.89c-1.18,0-2.19-1.08-3.04-3.23c-1.31,1.34-2.32,2.02-3.04,2.02c-1.5-0.54-2.25-1.53-2.25-2.98v-0.65
                    c0-2.26,0.88-3.39,2.65-3.39h0.78c0.46-7.58,0.75-14.6,0.88-21.05c-0.78,0-1.34,0.73-1.67,2.18c-0.72,0.81-1.47,1.21-2.25,1.21
                    h-0.78c-1.11-0.05-1.67-0.51-1.67-1.37c0.33-0.54,0.49-1.16,0.49-1.86c-1.5-0.32-2.25-0.86-2.25-1.61c0-1.02,1.01-1.69,3.04-2.02
                    c0.85,0,1.53,0.43,2.06,1.29l3.04-1.29c0-15.38-2.58-28.85-7.74-40.41h-0.2c-0.59,0.54-1.34,0.81-2.25,0.81
                    c-1.7,0-2.71-1.34-3.04-4.03c0.52-2.31,1.54-3.47,3.04-3.47c0.72,0,1.34,0.16,1.86,0.48c0-2.04,1.01-3.25,3.04-3.63
                    c1.83,0,2.91,1.16,3.23,3.47c-0.13,1.34-0.75,2.64-1.86,3.87v0.16c5.16,12.53,7.74,25.6,7.74,39.2c0.06,0.91,0.2,1.37,0.39,1.37
                    c7.78-3.98,12.91-8.76,15.39-14.36c-1.05-0.43-1.57-0.99-1.57-1.69v-0.48c0.39-1.34,1.14-2.02,2.25-2.02c0.91,0,1.8,0.56,2.65,1.69
                    c0.72-0.11,1.24-0.16,1.57-0.16c0.98,0,1.6,0.67,1.86,2.02c-0.33,1.56-1.08,2.34-2.25,2.34l-1.18-0.24
                    c-2.29,5.38-7.78,10.51-16.47,15.41c0.46,0,1.27,0.16,2.45,0.48c0-0.75,0.65-1.24,1.96-1.45c1.24,0.22,1.86,1,1.86,2.34
                    c-0.2,1.08-0.82,1.61-1.86,1.61c3.92,9.73,9.34,16.24,16.27,19.52c0.85-0.65,1.54-0.97,2.06-0.97c1.76,0.22,2.65,0.83,2.65,1.86
                    c0,0.97-0.75,1.59-2.25,1.86v0.65c0,0.86-0.33,1.43-0.98,1.69h-1.67c-1.37-0.16-2.06-0.67-2.06-1.53l0.2-1.37
                    c-6.73-2.96-12.19-9.2-16.37-18.71c-0.52-1.67-1.41-2.5-2.65-2.5c-0.72-0.38-1.08-1.32-1.08-2.82c-0.59,0.22-0.92,0.46-0.98,0.73
                    c0,8.07-0.2,16.19-0.59,24.36c1.57,0,2.58,1,3.04,2.98v0.32C264.48,140.28,263.66,141.41,262.03,141.89z"
                                style="fill: #FF00CC;"></path>
                            <path _ngcontent-jaa-c13="" d="M307.91,137.29c-7.19,0-12.38-4.6-15.59-13.79c-0.98-3.66-1.47-7.29-1.47-10.89c0-4.68,0.75-10.3,2.25-16.86
                    c-1.76,0-2.65-0.73-2.65-2.18c0.39-1.77,1.21-2.66,2.45-2.66c0.78,0,1.73,0.56,2.84,1.69c1.24-0.91,2.32-1.37,3.23-1.37
                    c1.5,0.38,2.25,1.05,2.25,2.02v0.81c-0.46,1.45-1.34,2.18-2.65,2.18h-1.27c-1.9,6.18-2.84,11.86-2.84,17.02
                    c0,9.57,3.14,15.92,9.41,19.04c1.37,0.7,2.78,1.05,4.22,1.05h0.78c5.36,0,9.38-3.47,12.06-10.41c0.52-2.47,0.78-4.62,0.78-6.45
                    c0-4.84-1.27-10.19-3.82-16.05c-2.22,0-3.33-0.67-3.33-2.02v-0.32c0.26-1.67,1.01-2.5,2.25-2.5c0.65,0,1.54,0.43,2.65,1.29h0.2
                    c0.91-1.18,1.86-1.77,2.84-1.77h0.39c1.37,0,2.19,0.78,2.45,2.34c0,1.77-1.08,2.66-3.23,2.66c2.16,5.38,3.23,10.65,3.23,15.81
                    c-0.33,10.54-4.44,17.4-12.35,20.57C311.56,137.02,309.87,137.29,307.91,137.29z"
                                style="fill: #FF00CC;"></path>
                            <path _ngcontent-jaa-c13="" d="M334.47,138.74h-0.59c-1.18-0.05-2.09-1.13-2.74-3.23c-1.24,1.13-2.22,1.69-2.94,1.69l-0.69-0.08
                    c-0.98-0.7-1.47-1.67-1.47-2.9c0-2.04,0.78-3.33,2.35-3.87l1.37,0.08c1.37-8.82,2.38-16.4,3.04-22.75
                    c0.46-4.89,0.69-9.52,0.69-13.87c0-11.08-1.47-20.6-4.41-28.56l-0.2-0.08c-0.59,0.48-1.27,0.73-2.06,0.73
                    c-1.57,0-2.48-1.13-2.74-3.39l0.1-1.29c0.65-1.88,1.63-2.82,2.94-2.82c0.39,0,1.05,0.11,1.96,0.32c0.59-1.61,1.44-2.69,2.55-3.23
                    l1.18,0.08c1.57,0.11,2.42,1.34,2.55,3.71c-0.13,1.08-0.88,2.37-2.25,3.87c3,8.55,4.51,18.63,4.51,30.25
                    c0,5.76-0.39,11.8-1.18,18.15c-0.59,6.67-1.44,13.55-2.55,20.65c1.57,0.11,2.48,1.1,2.74,2.98l-0.1,1.05
                    C336.46,137.32,335.78,138.15,334.47,138.74z" style="fill: #FF00CC;"></path>
                            <path _ngcontent-jaa-c13="" d="M347.99,138.74h-0.59c-1.18-0.05-2.09-1.13-2.74-3.23c-1.24,1.13-2.22,1.69-2.94,1.69l-0.69-0.08
                    c-0.98-0.7-1.47-1.67-1.47-2.9c0-2.04,0.78-3.33,2.35-3.87l1.37,0.08c1.37-8.82,2.38-16.4,3.04-22.75
                    c0.46-4.89,0.69-9.52,0.69-13.87c0-11.08-1.47-20.6-4.41-28.56l-0.2-0.08c-0.59,0.48-1.27,0.73-2.06,0.73
                    c-1.57,0-2.48-1.13-2.74-3.39l0.1-1.29c0.65-1.88,1.63-2.82,2.94-2.82c0.39,0,1.05,0.11,1.96,0.32c0.59-1.61,1.44-2.69,2.55-3.23
                    l1.18,0.08c1.57,0.11,2.42,1.34,2.55,3.71c-0.13,1.08-0.88,2.37-2.25,3.87c3,8.55,4.51,18.63,4.51,30.25
                    c0,5.76-0.39,11.8-1.18,18.15c-0.59,6.67-1.44,13.55-2.55,20.65c1.57,0.11,2.48,1.1,2.74,2.98l-0.1,1.05
                    C349.99,137.32,349.3,138.15,347.99,138.74z" style="fill: #FF00CC;"></path>
                            <path _ngcontent-jaa-c13="" d="M375.73,171.25c-6.21,0-12.09-4.68-17.64-14.04c-0.46,0.21-0.85,0.32-1.18,0.32h-0.88c-1.05-0.65-1.57-1.32-1.57-2.02
                    v-0.48c0.06-0.92,0.59-1.37,1.57-1.37c0.85,0.21,1.4,0.32,1.67,0.32c0.39-1.56,1.14-2.34,2.25-2.34h0.59
                    c1.11,0,1.93,0.73,2.45,2.18c-0.13,0.54-0.62,1.16-1.47,1.86c5.62,8.01,10.62,12.02,15,12.02c5.82,0,8.72-8.07,8.72-24.2
                    c0-5.65-0.39-11.62-1.18-17.91h-0.2c-0.33,2.64-2.29,5.59-5.88,8.87c-2.55,1.67-5.06,2.5-7.55,2.5h-1.18
                    c-5.36,0-9.77-3.6-13.23-10.81c-1.5-4.03-2.25-8.39-2.25-13.07c0-3.92,0.36-8.09,1.08-12.5c-1.63-0.11-2.45-0.73-2.45-1.86
                    c0-1.08,0.55-1.91,1.67-2.5h0.59c0.59,0,1.4,0.43,2.45,1.29c0.85-0.7,1.8-1.13,2.84-1.29c1.44,0.38,2.16,1.1,2.16,2.18
                    c-0.26,1.67-1.21,2.5-2.84,2.5h-0.59c-1.05,5.16-1.57,9.44-1.57,12.83c0,9.73,3.23,16.08,9.7,19.04c1.04,0.38,2.25,0.62,3.63,0.73
                    c4.77,0,8.3-3.01,10.59-9.03c0.39-2.1,0.59-3.82,0.59-5.16c0-4.57-1.41-9.65-4.22-15.25c-2.16-0.16-3.23-0.94-3.23-2.34
                    c0-1.08,0.59-1.86,1.76-2.34c0.46,0,1.21,0.3,2.25,0.89c0.46-1.34,1.21-2.02,2.25-2.02h0.39c1.5,0,2.51,0.94,3.04,2.82
                    c0,0.32-0.39,1.05-1.18,2.18c1.31,2.26,2.91,7.61,4.8,16.05c1.5,9.2,2.25,16.99,2.25,23.39
                    C389.75,161.73,385.08,171.25,375.73,171.25z" style="fill: #FF00CC;"></path>
                        </g>
                        <g _ngcontent-jaa-c13="">
                            <path _ngcontent-jaa-c13="" d="M236.41,194.02c-0.85-0.04-1.7-0.62-2.54-1.75c-0.67,0.2-1.34,0.29-2,0.26c-1.64-0.27-2.44-0.93-2.39-1.98
                    c0.69-1.76,1.87-2.6,3.52-2.52l0.64,0.03c0.47-2.04,0.72-3.21,0.73-3.52l-0.57-0.03c-0.05,1.01-1.25,1.59-3.62,1.76
                    c-1.83-0.36-2.71-1.12-2.66-2.28c0.03-0.7,0.68-1.35,1.93-1.95c-0.49-0.76-0.71-1.43-0.69-2.01c0.04-0.81,0.81-1.24,2.33-1.29
                    l0.49,0.02c1.92,0.36,2.85,1.16,2.79,2.4c0.23,0.01,0.45,0.06,0.63,0.15c0.66-3,1.06-6.01,1.2-9.04c0.32-6.86-1-13.16-3.94-18.9
                    l-1.49,0.05c-1.7-0.08-2.74-1.06-3.12-2.94c0.04-0.93,0.89-1.47,2.56-1.63l1.69,0.31c0.63-1.41,1.42-2.09,2.36-2.05
                    c1.74,0.08,2.74,1.1,2.98,3.05c-0.03,0.74-0.54,1.47-1.52,2.2c2.45,5.24,3.63,8.93,3.53,11.07c0.14,0.01,0.33,1.49,0.57,4.46
                    c8.59-1.97,13.02-5.83,13.29-11.57c0.2-4.34-2.26-7.88-7.37-10.6c-2.04-0.75-3.82-1.17-5.33-1.24c-4.4,0.15-6.62,0.69-6.66,1.62
                    c-0.06,1.2-1.13,1.95-3.22,2.24c-1.73-0.31-2.58-0.95-2.53-1.92l0.02-0.35c0.02-0.47,0.31-1,0.85-1.59
                    c-1.3-0.56-1.92-1.31-1.88-2.24c0.43-1.18,1.38-1.74,2.84-1.68l0.92,0.04c1.92,0.44,2.86,0.91,2.84,1.41
                    c2.29-0.55,4.45-0.79,6.48-0.69l1.91,0.09c5.98,0.28,10.59,3.23,13.83,8.86c0.84,2.18,1.23,4.04,1.16,5.59l-0.05,1.16
                    c-0.22,4.81-3.21,8.75-8.98,11.83c-1.88,0.92-3.71,1.56-5.47,1.9l-0.01,0.17c5.18,0.24,8.58,1.95,10.18,5.13
                    c0.29,0.91,0.42,1.59,0.4,2.06l-0.05,0.99c-0.12,2.6-1.96,4.67-5.53,6.22c-1.54,0.51-3.13,0.73-4.78,0.65l-1.7-0.08
                    c-1.13-0.05-2.12-0.19-2.96-0.43c-0.32,0.8-0.52,2.07-0.6,3.82c1.1,0.71,1.63,1.57,1.58,2.58
                    C238.54,193.37,237.69,194.08,236.41,194.02z M241.53,182.89c3.35,0.16,5.66-0.88,6.95-3.12c0.11-0.31,0.17-0.63,0.19-0.98
                    c0.13-2.87-2.05-4.62-6.56-5.26c-0.57-0.03-1.37-0.02-2.41,0c-0.1,2.09-0.45,5.07-1.05,8.93
                    C239.96,182.72,240.92,182.86,241.53,182.89z" style="fill: #FF00CC;"></path>
                            <path _ngcontent-jaa-c13=""
                                d="M268.03,190.83l-0.39-0.02c-0.96-0.04-1.85-1.13-2.67-3.26c-2.44-1.08-4.38-3.3-5.8-6.64c-1.82-4.26-2.6-9.14-2.34-14.64
                    c0.43-9.34,3.19-16.07,8.28-20.2l2.49-1.34l-0.1-0.71c0.5-1.38,1.3-2.05,2.39-2l0.72,0.03c0.92,0.04,1.46,0.63,1.63,1.75
                    c-0.02,0.36-0.35,1.01-1.01,1.95c1.06,0.77,1.58,1.42,1.55,1.96l-0.02,0.38c-0.3,0.85-0.96,1.25-1.96,1.21
                    c-0.74-0.03-1.54-0.36-2.38-0.97c-2.05-0.09-3.95,2.57-5.69,8c-0.91,3.6-1.44,7.08-1.6,10.46c-0.2,9.93,1.61,16.24,5.43,18.94
                    c0.09,0,0.13-0.05,0.14-0.16c0.89-1.29,1.9-1.91,3.04-1.86c1.09,0.05,1.7,0.67,1.82,1.87c-0.04,0.79-0.79,1.48-2.26,2.06
                    c0.23,0.66,0.34,1.11,0.33,1.36l-0.03,0.65C269.42,190.48,268.9,190.87,268.03,190.83z M275.09,191.38l-0.39-0.02
                    c-1.01-0.05-1.65-0.71-1.94-1.98c0.02-0.39,0.26-0.91,0.73-1.53c-1.15-0.74-1.7-1.48-1.67-2.24c0.04-0.83,0.69-1.28,1.97-1.37
                    l0.13,0.01c0.9,0.33,1.6,0.81,2.1,1.45c1.92-0.78,3.62-3,5.1-6.68c1.26-3.65,1.99-7.49,2.17-11.51l0.05-1.02
                    c0.37-8.01-0.87-13.81-3.72-17.4c-0.55-0.42-1.06-0.7-1.54-0.83c-0.54,1.24-1.35,1.83-2.44,1.78l-0.65-0.03
                    c-0.96-0.04-1.53-0.59-1.7-1.64l0.02-0.43c0.03-0.61,0.6-1.11,1.71-1.49c-0.32-0.73-0.46-1.35-0.44-1.86
                    c0.04-0.97,0.79-1.42,2.23-1.36c0.87,0.04,1.56,0.76,2.07,2.15c2.62,1.02,4.77,3.35,6.44,7c1.88,4.73,2.7,9.81,2.45,15.24
                    c-0.43,9.34-3.23,15.95-8.4,19.81c-0.99,0.49-1.59,0.74-1.81,0.73C277.44,190.37,276.62,191.45,275.09,191.38z"
                                style="fill: #FF00CC;"></path>
                            <path _ngcontent-jaa-c13="" d="M294.14,195.23c-1.22-0.06-1.95-0.88-2.18-2.48l0.02-0.38c-0.66,0.15-1.1,0.22-1.32,0.21l-1.05-0.05
                    c-1.14-0.05-1.8-0.79-2-2.2c0.06-1.29,1.3-2.06,3.72-2.31c0.87,0.04,1.75,0.37,2.65,0.99c2.83-2.6,5.55-6.42,8.14-11.45
                    c0.01-0.14,0.18-0.59,0.52-1.33c-2.06-1.9-4.31-5.33-6.74-10.3c-2.97-8.56-4.41-13.94-4.31-16.13c-0.21-1.16-0.44-1.75-0.71-1.76
                    c-1.46-0.54-2.17-1.4-2.11-2.58l0.01-0.21c0.31-0.99,0.88-1.47,1.71-1.43c0.57,0.03,1.25,0.35,2.06,0.96
                    c0.81-0.54,1.63-0.79,2.46-0.75c0.83,0.04,1.4,0.57,1.7,1.59c-0.6,1.7-1.43,2.53-2.48,2.48c-0.06,1.29,0.93,5.53,2.96,12.72
                    c1.56,4.03,3.35,7.45,5.37,10.24c0.87,1.12,1.34,1.68,1.43,1.69c2.45-7.63,3.9-16.13,4.33-25.51l-0.85-0.04
                    c-1.09-0.05-1.76-0.77-2-2.15c0.42-1.49,1.2-2.21,2.33-2.16l0.72,0.03c0.57,0.03,1.31,0.44,2.24,1.24c0.73-0.61,1.53-0.9,2.4-0.86
                    c0.74,0.03,1.26,0.71,1.55,2.02c-0.38,1.71-1.41,2.53-3.07,2.45l-0.15,3.23c-0.39,8.44-2.04,16.63-4.94,24.56l0.45,0.29
                    c0.76-0.4,1.32-0.59,1.67-0.57l0.65,0.03c1.05,0.05,1.61,0.65,1.69,1.81c-0.06,1.22-1.02,1.79-2.9,1.7
                    c-0.08,1.65-0.73,2.45-1.95,2.4c-1-0.23-1.48-0.54-1.47-0.93l-0.26-0.01c-1.67,4.03-4.33,7.56-7.97,10.6
                    c0.53,0.78,0.79,1.42,0.76,1.93l-0.02,0.48C297.14,194.34,296.12,194.99,294.14,195.23z"
                                style="fill: #FF00CC;"></path>
                            <path _ngcontent-jaa-c13=""
                                d="M335.33,193.08c-6.29-0.29-12.29-3.95-18-10.99l-0.13-0.01c-0.28,0.42-0.88,0.61-1.8,0.57c-1.14-0.05-1.9-0.95-2.3-2.7
                    c0.04-0.79,0.65-1.19,1.83-1.21c0.57,0.03,1.15,0.09,1.76,0.19l0.03-0.59c0.25-1.61,0.96-2.39,2.14-2.33l0.52,0.02
                    c1.18,0.05,1.91,0.79,2.2,2.21l-0.02,0.54c-0.02,0.4-0.44,0.9-1.25,1.51c4.57,6.26,9.21,9.5,13.93,9.72l1.11,0.05
                    c3.45,0.16,6.4-1.31,8.87-4.4c0.61-0.94,0.94-1.86,0.98-2.76l0.04-0.86c0.15-3.31-2.66-6.35-8.44-9.14
                    c-0.13-0.08-0.3-0.12-0.52-0.13c-0.02,0.5-0.67,0.82-1.95,0.94c-1.31-0.06-2.19-1-2.63-2.82c0.34-0.81,1.41-1.18,3.2-1.09
                    l-0.06-1.46c0.28-1.25,0.94-1.85,1.99-1.8l0.39,0.02c1.73,0.33,2.57,1.09,2.52,2.28l-0.01,0.32c-0.02,0.5-0.33,0.98-0.92,1.42
                    c6.93,3.31,10.29,7.37,10.07,12.19l-0.02,0.43c-0.2,4.24-3.12,7.4-8.77,9.48C338.09,192.99,336.51,193.13,335.33,193.08z
                    M330.39,170.71l-0.26-0.01c-1.49-0.07-2.41-0.98-2.76-2.72c0.02-0.54,0.38-1.08,1.06-1.63l0-0.11c-4.73-2.77-7.93-6.49-9.59-11.14
                    c-0.38-1.28-0.54-2.6-0.47-3.97c0.23-5.03,3.6-8.26,10.1-9.69c1.32-0.26,2.6-0.37,3.82-0.31l1.11,0.05
                    c6.07,0.28,11.28,3.92,15.64,10.93c0.16,0.26,0.24,0.44,0.24,0.55c0.67-0.26,1.18-0.38,1.53-0.36c1.18,0.05,1.91,0.83,2.19,2.32
                    c-0.06,1.26-0.63,1.86-1.72,1.81l-2.01-0.53c-0.6,1.7-1.45,2.52-2.54,2.47c-1.57-0.07-2.43-0.98-2.57-2.71
                    c0.04-0.93,0.64-1.57,1.79-1.91l0.01-0.22c-3.66-6.07-8.08-9.23-13.28-9.47c-3.58-0.17-6.61,1.04-9.09,3.63
                    c-0.71,1.08-1.13,2.25-1.28,3.51c-0.18,3.99,2.74,8.41,8.77,13.26c0.55-0.55,1.11-0.81,1.68-0.79l0.26,0.01
                    c1.4,0.06,2.25,0.91,2.57,2.55c-0.04,0.79-0.69,1.21-1.96,1.26l-1.18-0.05l-0.07,1.56C332.06,170.19,331.4,170.75,330.39,170.71z"
                                style="fill: #FF00CC;"></path>
                        </g>
                    </svg>